<svg id="kity_svg_6" xmlns="http://www.w3.org/2000/svg" xmlns:xlink="http://www.w3.org/1999/xlink" version="1.1" width="1637" height="736" style="background: rgb(251, 251, 251) none repeat scroll 0% 0%; visibility: visible;" viewBox="0 0 1637 736"><defs id="kity_defs_7"><linearGradient id="kity_linearGradient_17" x1="0" y1="0" x2="0" y2="1"><stop id="kity_stop_18" offset="0" stop-color="rgb(255, 255, 255)"></stop><stop id="kity_stop_19" offset="1" stop-color="rgb(204, 204, 204)"></stop></linearGradient><marker id="kity_marker_2" orient="auto" refX="6" refY="0" viewBox="-7 -7 14 14" markerWidth="7" markerHeight="7" markerUnits="userSpaceOnUse"><path id="kity_path_3" fill="rgb(115, 191, 118)" stroke="none" d="M6,0A6,6,0,1,1,-6,0A6,6,0,1,1,6,0"></path></marker></defs><g id="kity_g_8"><g id="minder1" text-rendering="optimize-speed"><g id="minder_connect_group1"><path id="kity_path_31" fill="none" stroke="rgb(115, 191, 118)" stroke-width="1" d="M806,444.5A210.5,218,0,0,1,1016.5,226.5"></path><path id="kity_path_33" fill="none" stroke="rgb(115, 191, 118)" stroke-width="1" d="M1175.5,226.5C1190.5,226.5,1190.5,71.5,1205.5,71.5L1278.5,71.5"></path><path id="kity_path_35" fill="none" stroke="rgb(115, 191, 118)" stroke-width="1" d="M1278.5,71.5C1293.5,71.5,1293.5,45.5,1308.5,45.5L1389.5,45.5"></path><path id="kity_path_37" fill="none" stroke="rgb(115, 191, 118)" stroke-width="1" d="M1278.5,71.5C1293.5,71.5,1293.5,97.5,1308.5,97.5L1617.5,97.5"></path><path id="kity_path_39" fill="none" stroke="rgb(115, 191, 118)" stroke-width="1" d="M1175.5,226.5C1190.5,226.5,1190.5,149.5,1205.5,149.5L1277.5,149.5"></path><path id="kity_path_41" fill="none" stroke="rgb(115, 191, 118)" stroke-width="1" d="M1175.5,226.5C1190.5,226.5,1190.5,253.5,1205.5,253.5L1267.5,253.5"></path><path id="kity_path_43" fill="none" stroke="rgb(115, 191, 118)" stroke-width="1" d="M1175.5,226.5C1190.5,226.5,1190.5,305.5,1205.5,305.5L1302.5,305.5"></path><path id="kity_path_45" fill="none" stroke="rgb(115, 191, 118)" stroke-width="1" d="M1175.5,226.5C1190.5,226.5,1190.5,357.5,1205.5,357.5L1332.5,357.5"></path><path id="kity_path_47" fill="none" stroke="rgb(115, 191, 118)" stroke-width="1" d="M806,444.5A210.5,15,0,0,0,1016.5,459.5"></path><path id="kity_path_49" fill="none" stroke="rgb(115, 191, 118)" stroke-width="1" d="M1104.5,459.5C1119.5,459.5,1119.5,473.5,1134.5,473.5L1371.5,473.5"></path><path id="kity_path_51" fill="none" stroke="rgb(115, 191, 118)" stroke-width="1" d="M806,444.5A210.5,105,0,0,0,1016.5,549.5"></path><path id="kity_path_59" fill="none" stroke="rgb(115, 191, 118)" stroke-width="1" d="M806,444.5A210.5,219,0,0,0,1016.5,663.5"></path><path id="kity_path_151" fill="none" stroke="rgb(115, 191, 118)" stroke-width="1" d="M806,444.5A210.5,133,0,0,0,595.5,311.5"></path><path id="kity_path_159" fill="none" stroke="rgb(115, 191, 118)" stroke-width="1" d="M1177.5,663.5C1192.5,663.5,1192.5,651.5,1207.5,651.5L1383.5,651.5"></path><path id="kity_path_167" fill="none" stroke="rgb(115, 191, 118)" stroke-width="1" d="M1177.5,663.5C1192.5,663.5,1192.5,703.5,1207.5,703.5L1391.5,703.5"></path><path id="kity_path_175" fill="none" stroke="rgb(115, 191, 118)" stroke-width="1" d="M1156.5,549.5C1171.5,549.5,1171.5,537.5,1186.5,537.5L1413.5,537.5"></path><path id="kity_path_183" fill="none" stroke="rgb(115, 191, 118)" stroke-width="1" d="M1156.5,549.5C1171.5,549.5,1171.5,589.5,1186.5,589.5L1288.5,589.5"></path><path id="kity_path_191" fill="none" stroke="rgb(115, 191, 118)" stroke-width="1" d="M1175.5,226.5C1190.5,226.5,1190.5,409.5,1205.5,409.5L1307.5,409.5"></path><path id="kity_path_199" fill="none" stroke="rgb(115, 191, 118)" stroke-width="1" d="M1175.5,226.5C1190.5,226.5,1190.5,201.5,1205.5,201.5L1284.5,201.5"></path><path id="kity_path_207" fill="none" stroke="rgb(115, 191, 118)" stroke-width="1" d="M806,444.5A210.5,67,0,0,0,595.5,377.5"></path><path id="kity_path_219" fill="none" stroke="rgb(115, 191, 118)" stroke-width="1" d="M473.5,377.5C458.5,377.5,458.5,391.5,443.5,391.5L358.5,391.5"></path><path id="kity_path_227" fill="none" stroke="rgb(115, 191, 118)" stroke-width="1" d="M806,444.5A210.5,127.5,0,0,1,595.5,572"></path><path id="kity_path_235" fill="none" stroke="rgb(115, 191, 118)" stroke-width="1" d="M404.5,572C389.5,572,389.5,456.5,374.5,456.5L190.5,456.5"></path><path id="kity_path_247" fill="none" stroke="rgb(115, 191, 118)" stroke-width="1" d="M190.5,456.5C175.5,456.5,175.5,456.5,160.5,456.5L20.5,456.5"></path><path id="kity_path_255" fill="none" stroke="rgb(115, 191, 118)" stroke-width="1" d="M404.5,572C389.5,572,389.5,508.5,374.5,508.5L319.5,508.5"></path><path id="kity_path_263" fill="none" stroke="rgb(115, 191, 118)" stroke-width="1" d="M404.5,572C389.5,572,389.5,560.5,374.5,560.5L179.5,560.5"></path><path id="kity_path_271" fill="none" stroke="rgb(115, 191, 118)" stroke-width="1" d="M404.5,572C389.5,572,389.5,664.5,374.5,664.5L302.5,664.5"></path><path id="kity_path_279" fill="none" stroke="rgb(115, 191, 118)" stroke-width="1" d="M404.5,572C389.5,572,389.5,716.5,374.5,716.5L300.5,716.5"></path><path id="kity_path_287" fill="none" stroke="rgb(115, 191, 118)" stroke-width="1" d="M404.5,572C389.5,572,389.5,612.5,374.5,612.5L232.5,612.5"></path><path id="kity_path_295" fill="none" stroke="rgb(115, 191, 118)" stroke-width="1" d="M302.5,664.5C287.5,664.5,287.5,664.5,272.5,664.5L113.5,664.5"></path></g><g id="minder_node1"><path id="node_outline1" fill="rgb(115, 191, 118)" stroke="rgb(115, 191, 118)" d="M718.5,424.5h175a5,5,0,0,1,5,5v30a5,5,0,0,1,-5,5h-175a5,5,0,0,1,-5,-5v-30a5,5,0,0,1,5,-5z" stroke-width="3"></path><g id="node_text1" fill="white"><text id="kity_text_22" text-rendering="inherit" font-size="16" dy=".8em" y="433.94000005722046" x="737.5">Outils numériques</text></g></g><g id="kity_g_14" display="none"><path id="kity_path_15" fill="rgba(0, 153, 5, 0.5)" stroke="none" d="M179.5,562.5h185v15h-185z"></path><path id="kity_path_16" fill="none" stroke="rgb(0, 128, 4)" d="M179.5,562.5L364.5,562.5" stroke-width="1"></path></g><g id="minder_node2"><g id="node_expander8" style="cursor: pointer;"><path id="kity_path_127" fill="white" stroke="gray" d="M1017.5,226.5A6,6,0,1,1,1005.5,226.5A6,6,0,1,1,1017.5,226.5"></path><path id="kity_path_128" fill="none" stroke="gray" d="M1007,226.5L1016,226.5"></path></g><path id="node_outline9" fill="rgb(238, 246, 238)" stroke="rgb(115, 191, 118)" d="M1021.5,213.5h151a3,3,0,0,1,3,3v20a3,3,0,0,1,-3,3h-151a3,3,0,0,1,-3,-3v-20a3,3,0,0,1,3,-3z" stroke-width="1"></path><g id="node_text9" fill="black"><text id="kity_text_75" text-rendering="inherit" font-size="14" dy=".8em" y="217.25999999046326" x="1038.5">Cloud (Nextcloud)</text></g></g><g id="minder_node3"><g id="node_expander3" style="cursor: pointer;"><path id="kity_path_112" fill="white" stroke="gray" d="M1215.5,57.5A6,6,0,1,1,1203.5,57.5A6,6,0,1,1,1215.5,57.5"></path><path id="kity_path_113" fill="none" stroke="gray" d="M1205,57.5L1214,57.5"></path></g><path id="node_outline4" fill="none" stroke="none" d="M1220.5,46.5h53a5,5,0,0,1,5,5v12a5,5,0,0,1,-5,5h-53a5,5,0,0,1,-5,-5v-12a5,5,0,0,1,5,-5z"></path><g id="node_text4" fill="black"><text id="kity_text_65" text-rendering="inherit" font-size="12" dy=".8em" y="49.580000042915344" x="1225.5">Fichiers</text></g></g><g id="minder_node4"><g id="node_expander1" style="cursor: pointer;" display="none"><path id="kity_path_106" fill="white" stroke="gray" d="M1318.5,31.5A6,6,0,1,1,1306.5,31.5A6,6,0,1,1,1318.5,31.5"></path><path id="kity_path_107" fill="none" stroke="gray"></path></g><path id="node_outline2" fill="none" stroke="none" d="M1323.5,20.5h61a5,5,0,0,1,5,5v12a5,5,0,0,1,-5,5h-61a5,5,0,0,1,-5,-5v-12a5,5,0,0,1,5,-5z"></path><g id="node_text2" fill="black"><text id="kity_text_61" text-rendering="inherit" font-size="12" dy=".8em" y="23.580000042915344" x="1328.5">Stockage</text></g></g><g id="minder_node5"><g id="node_expander2" style="cursor: pointer;" display="none"><path id="kity_path_109" fill="white" stroke="gray" d="M1318.5,83.5A6,6,0,1,1,1306.5,83.5A6,6,0,1,1,1318.5,83.5"></path><path id="kity_path_110" fill="none" stroke="gray"></path></g><path id="node_outline3" fill="none" stroke="none" d="M1323.5,72.5h289a5,5,0,0,1,5,5v12a5,5,0,0,1,-5,5h-289a5,5,0,0,1,-5,-5v-12a5,5,0,0,1,5,-5z"></path><g id="node_text3" fill="black"><text id="kity_text_63" text-rendering="inherit" font-size="12" dy=".8em" y="75.58000004291534" x="1328.5">Création de documents (doc, xls, ppt) &amp; mind map</text></g></g><g id="minder_node6"><g id="node_expander4" style="cursor: pointer;" display="none"><path id="kity_path_115" fill="white" stroke="gray" d="M1215.5,135.5A6,6,0,1,1,1203.5,135.5A6,6,0,1,1,1215.5,135.5"></path><path id="kity_path_116" fill="none" stroke="gray"></path></g><path id="node_outline5" fill="none" stroke="none" d="M1220.5,124.5h52a5,5,0,0,1,5,5v12a5,5,0,0,1,-5,5h-52a5,5,0,0,1,-5,-5v-12a5,5,0,0,1,5,-5z"></path><g id="node_text5" fill="black"><text id="kity_text_67" text-rendering="inherit" font-size="12" dy=".8em" y="127.58000004291534" x="1225.5">Agenda</text></g></g><g id="minder_node7"><g id="node_expander5" style="cursor: pointer;" display="none"><path id="kity_path_118" fill="white" stroke="gray" d="M1215.5,239.5A6,6,0,1,1,1203.5,239.5A6,6,0,1,1,1215.5,239.5"></path><path id="kity_path_119" fill="none" stroke="gray"></path></g><path id="node_outline6" fill="none" stroke="none" d="M1220.5,228.5h42a5,5,0,0,1,5,5v12a5,5,0,0,1,-5,5h-42a5,5,0,0,1,-5,-5v-12a5,5,0,0,1,5,-5z"></path><g id="node_text6" fill="black"><text id="kity_text_69" text-rendering="inherit" font-size="12" dy=".8em" y="231.58000004291534" x="1225.5">Notes</text></g></g><g id="minder_node8"><g id="node_expander6" style="cursor: pointer;" display="none"><path id="kity_path_121" fill="white" stroke="gray" d="M1215.5,291.5A6,6,0,1,1,1203.5,291.5A6,6,0,1,1,1215.5,291.5"></path><path id="kity_path_122" fill="none" stroke="gray"></path></g><path id="node_outline7" fill="none" stroke="none" d="M1220.5,280.5h77a5,5,0,0,1,5,5v12a5,5,0,0,1,-5,5h-77a5,5,0,0,1,-5,-5v-12a5,5,0,0,1,5,-5z"></path><g id="node_text7" fill="black"><text id="kity_text_71" text-rendering="inherit" font-size="12" dy=".8em" y="283.58000004291534" x="1225.5">Formulaires</text></g></g><g id="minder_node9"><g id="node_expander7" style="cursor: pointer;" display="none"><path id="kity_path_124" fill="white" stroke="gray" d="M1215.5,343.5A6,6,0,1,1,1203.5,343.5A6,6,0,1,1,1215.5,343.5"></path><path id="kity_path_125" fill="none" stroke="gray"></path></g><path id="node_outline8" fill="none" stroke="none" d="M1220.5,332.5h107a5,5,0,0,1,5,5v12a5,5,0,0,1,-5,5h-107a5,5,0,0,1,-5,-5v-12a5,5,0,0,1,5,-5z" stroke-width="3"></path><g id="node_text8" fill="black"><text id="kity_text_73" text-rendering="inherit" font-size="12" dy=".8em" y="335.58000004291534" x="1225.5">Visio (Discussion)</text></g></g><g id="minder_node10"><g id="node_expander10" style="cursor: pointer;"><path id="kity_path_133" fill="white" stroke="gray" d="M1017.5,459.5A6,6,0,1,1,1005.5,459.5A6,6,0,1,1,1017.5,459.5"></path><path id="kity_path_134" fill="none" stroke="gray" d="M1007,459.5L1016,459.5"></path></g><path id="node_outline11" fill="rgb(238, 246, 238)" stroke="rgb(115, 191, 118)" d="M1021.5,446.5h80a3,3,0,0,1,3,3v20a3,3,0,0,1,-3,3h-80a3,3,0,0,1,-3,-3v-20a3,3,0,0,1,3,-3z" stroke-width="1"></path><g id="node_text11" fill="black"><text id="kity_text_79" text-rendering="inherit" font-size="14" dy=".8em" y="450.25999999046326" x="1038.5">WeKan</text></g></g><g id="minder_node11"><g id="node_expander9" style="cursor: pointer;" display="none"><path id="kity_path_130" fill="white" stroke="gray" d="M1144.5,459.5A6,6,0,1,1,1132.5,459.5A6,6,0,1,1,1144.5,459.5"></path><path id="kity_path_131" fill="none" stroke="gray"></path></g><path id="node_outline10" fill="none" stroke="none" d="M1149.5,448.5h217a5,5,0,0,1,5,5v12a5,5,0,0,1,-5,5h-217a5,5,0,0,1,-5,-5v-12a5,5,0,0,1,5,-5z"></path><g id="node_text10" fill="black"><text id="kity_text_77" text-rendering="inherit" font-size="12" dy=".8em" y="451.58000004291534" x="1154.5">Suivi de projet (par tableaux Kanban)</text></g></g><g id="minder_node12"><g id="node_expander14" style="cursor: pointer;"><path id="kity_path_145" fill="white" stroke="gray" d="M1017.5,549.5A6,6,0,1,1,1005.5,549.5A6,6,0,1,1,1017.5,549.5"></path><path id="kity_path_146" fill="none" stroke="gray" d="M1007,549.5L1016,549.5"></path></g><path id="node_outline15" fill="rgb(238, 246, 238)" stroke="rgb(115, 191, 118)" d="M1021.5,536.5h132a3,3,0,0,1,3,3v20a3,3,0,0,1,-3,3h-132a3,3,0,0,1,-3,-3v-20a3,3,0,0,1,3,-3z" stroke-width="1"></path><g id="node_text15" fill="black"><text id="kity_text_87" text-rendering="inherit" font-size="14" dy=".8em" y="540.2599999904633" x="1038.5">Chat (Element)</text></g></g><g id="minder_node16"><g id="node_expander15" style="cursor: pointer;"><path id="kity_path_148" fill="white" stroke="gray" d="M1017.5,663.5A6,6,0,1,1,1005.5,663.5A6,6,0,1,1,1017.5,663.5"></path><path id="kity_path_149" fill="none" stroke="gray" d="M1007,663.5L1016,663.5"></path></g><path id="node_outline16" fill="rgb(238, 246, 238)" stroke="rgb(115, 191, 118)" d="M1021.5,650.5h153a3,3,0,0,1,3,3v20a3,3,0,0,1,-3,3h-153a3,3,0,0,1,-3,-3v-20a3,3,0,0,1,3,-3z" stroke-width="1"></path><g id="node_text16" fill="black"><text id="kity_text_89" text-rendering="inherit" font-size="14" dy=".8em" y="654.2599999904633" x="1038.5">Forum (Discourse)</text></g></g><g id="minder_node17"><g id="node_expander16" style="cursor: pointer;" display="none"><path id="kity_path_156" fill="white" stroke="gray" d="M606.5,311.5A6,6,0,1,1,594.5,311.5A6,6,0,1,1,606.5,311.5"></path><path id="kity_path_157" fill="none" stroke="gray"></path></g><path id="node_outline17" fill="rgb(238, 246, 238)" stroke="rgb(115, 191, 118)" d="M531.5,298.5h59a3,3,0,0,1,3,3v20a3,3,0,0,1,-3,3h-59a3,3,0,0,1,-3,-3v-20a3,3,0,0,1,3,-3z" stroke-width="1"></path><g id="node_text17" fill="black"><text id="kity_text_153" text-rendering="inherit" font-size="14" dy=".8em" y="302.25999999046326" x="548.5">Doc</text></g></g><g id="minder_node18"><g id="node_expander17" style="cursor: pointer;" display="none"><path id="kity_path_164" fill="white" stroke="gray" d="M1217.5,637.5A6,6,0,1,1,1205.5,637.5A6,6,0,1,1,1217.5,637.5"></path><path id="kity_path_165" fill="none" stroke="gray"></path></g><path id="node_outline18" fill="none" stroke="none" d="M1222.5,626.5h156a5,5,0,0,1,5,5v12a5,5,0,0,1,-5,5h-156a5,5,0,0,1,-5,-5v-12a5,5,0,0,1,5,-5z" stroke-width="3"></path><g id="node_text18" fill="black"><text id="kity_text_161" text-rendering="inherit" font-size="12" dy=".8em" y="629.5800000429153" x="1227.5">Débattre de sujets de fond</text></g></g><g id="minder_node19"><g id="node_expander18" style="cursor: pointer;" display="none"><path id="kity_path_172" fill="white" stroke="gray" d="M1217.5,689.5A6,6,0,1,1,1205.5,689.5A6,6,0,1,1,1217.5,689.5"></path><path id="kity_path_173" fill="none" stroke="gray"></path></g><path id="node_outline19" fill="none" stroke="none" d="M1222.5,678.5h164a5,5,0,0,1,5,5v12a5,5,0,0,1,-5,5h-164a5,5,0,0,1,-5,-5v-12a5,5,0,0,1,5,-5z" stroke-width="3"></path><g id="node_text19" fill="black"><text id="kity_text_169" text-rendering="inherit" font-size="12" dy=".8em" y="681.5800000429153" x="1227.5">Lancer de nouveaux projets</text></g></g><g id="minder_node20" opacity="1"><g id="node_expander19" style="cursor: pointer;" display="none"><path id="kity_path_180" fill="white" stroke="gray" d="M1196.5,523.5A6,6,0,1,1,1184.5,523.5A6,6,0,1,1,1196.5,523.5"></path><path id="kity_path_181" fill="none" stroke="gray"></path></g><path id="node_outline20" fill="none" stroke="none" d="M1201.5,512.5h207a5,5,0,0,1,5,5v12a5,5,0,0,1,-5,5h-207a5,5,0,0,1,-5,-5v-12a5,5,0,0,1,5,-5z" stroke-width="3"></path><g id="node_text20" fill="black"><text id="kity_text_177" text-rendering="inherit" font-size="12" dy=".8em" y="515.5800000429153" x="1206.5">Passer de l'information rapidement</text></g></g><g id="minder_node21"><g id="node_expander20" style="cursor: pointer;" display="none"><path id="kity_path_188" fill="white" stroke="gray" d="M1196.5,575.5A6,6,0,1,1,1184.5,575.5A6,6,0,1,1,1196.5,575.5"></path><path id="kity_path_189" fill="none" stroke="gray"></path></g><path id="node_outline21" fill="none" stroke="none" d="M1201.5,564.5h82a5,5,0,0,1,5,5v12a5,5,0,0,1,-5,5h-82a5,5,0,0,1,-5,-5v-12a5,5,0,0,1,5,-5z" stroke-width="3"></path><g id="node_text21" fill="black"><text id="kity_text_185" text-rendering="inherit" font-size="12" dy=".8em" y="567.5800000429153" x="1206.5">web ou appli</text></g></g><g id="minder_node22"><g id="node_expander21" style="cursor: pointer;" display="none"><path id="kity_path_196" fill="white" stroke="gray" d="M1215.5,395.5A6,6,0,1,1,1203.5,395.5A6,6,0,1,1,1215.5,395.5"></path><path id="kity_path_197" fill="none" stroke="gray"></path></g><path id="node_outline22" fill="none" stroke="none" d="M1220.5,384.5h82a5,5,0,0,1,5,5v12a5,5,0,0,1,-5,5h-82a5,5,0,0,1,-5,-5v-12a5,5,0,0,1,5,-5z" stroke-width="3"></path><g id="node_text22" fill="black"><text id="kity_text_193" text-rendering="inherit" font-size="12" dy=".8em" y="387.58000004291534" x="1225.5">web ou appli</text></g></g><g id="minder_node23" opacity="1"><g id="node_expander22" style="cursor: pointer;" display="none"><path id="kity_path_204" fill="white" stroke="gray" d="M1215.5,187.5A6,6,0,1,1,1203.5,187.5A6,6,0,1,1,1215.5,187.5"></path><path id="kity_path_205" fill="none" stroke="gray"></path></g><path id="node_outline23" fill="none" stroke="none" d="M1220.5,176.5h59a5,5,0,0,1,5,5v12a5,5,0,0,1,-5,5h-59a5,5,0,0,1,-5,-5v-12a5,5,0,0,1,5,-5z" stroke-width="3"></path><g id="node_text23" fill="black"><text id="kity_text_201" text-rendering="inherit" font-size="12" dy=".8em" y="179.58000004291534" x="1225.5">Contacts</text></g></g><g id="minder_node24"><g id="node_expander23" style="cursor: pointer;"><path id="kity_path_212" fill="white" stroke="gray" d="M606.5,377.5A6,6,0,1,1,594.5,377.5A6,6,0,1,1,606.5,377.5"></path><path id="kity_path_213" fill="none" stroke="gray" d="M596,377.5L605,377.5"></path></g><path id="node_outline24" fill="rgb(238, 246, 238)" stroke="rgb(115, 191, 118)" d="M476.5,364.5h114a3,3,0,0,1,3,3v20a3,3,0,0,1,-3,3h-114a3,3,0,0,1,-3,-3v-20a3,3,0,0,1,3,-3z" stroke-width="1"></path><g id="node_text24" fill="black"><text id="kity_text_209" text-rendering="inherit" font-size="14" dy=".8em" y="368.25999999046326" x="493.5">Évenements</text></g><g id="kity_g_214" display="none"><g id="kity_g_215"><path id="kity_path_216" fill="rgb(255, 244, 179)" stroke="none" d="M578.5,363.79999923706055h64v25h-64z"></path><text id="kity_text_217" text-rendering="geometricPrecision" font-size="12" dy="5.219999313354492" x="586.5" fill="rgb(77, 65, 0)" y="376.5">En cours</text></g></g></g><g id="minder_node25"><g id="node_expander24" style="cursor: pointer;" display="none"><path id="kity_path_224" fill="white" stroke="gray" d="M445.5,377.5A6,6,0,1,1,433.5,377.5A6,6,0,1,1,445.5,377.5"></path><path id="kity_path_225" fill="none" stroke="gray"></path></g><path id="node_outline25" fill="none" stroke="none" d="M363.5,366.5h65a5,5,0,0,1,5,5v12a5,5,0,0,1,-5,5h-65a5,5,0,0,1,-5,-5v-12a5,5,0,0,1,5,-5z" stroke-width="3"></path><g id="node_text25" fill="black"><text id="kity_text_221" text-rendering="inherit" font-size="12" dy=".8em" y="369.58000004291534" x="368.5">Mobilizon</text></g></g><g id="minder_node26"><g id="node_expander25" style="cursor: pointer;"><path id="kity_path_232" fill="white" stroke="gray" d="M606.5,572A6,6,0,1,1,594.5,572A6,6,0,1,1,606.5,572"></path><path id="kity_path_233" fill="none" stroke="gray" d="M596,572L605,572"></path></g><path id="node_outline26" fill="rgb(238, 246, 238)" stroke="rgb(115, 191, 118)" d="M407.5,553.5h183a3,3,0,0,1,3,3v31a3,3,0,0,1,-3,3h-183a3,3,0,0,1,-3,-3v-31a3,3,0,0,1,3,-3z" stroke-width="1"></path><g id="node_text26" fill="black"><text id="kity_text_229" text-rendering="inherit" font-size="14" dy=".8em" y="562.2599999904633" x="424.5">Site internet</text></g><g id="kity_g_242"><g id="kity_g_243"><path id="kity_path_244" fill="rgb(255, 244, 179)" stroke="none" d="M509.5,557.7999992370605h64v25h-64z"></path><text id="kity_text_245" text-rendering="geometricPrecision" font-size="12" dy="5.219999313354492" x="517.5" fill="rgb(77, 65, 0)" y="570.5">En cours</text></g></g></g><g id="minder_node27"><g id="node_expander26" style="cursor: pointer;"><path id="kity_path_240" fill="white" stroke="gray" d="M376.5,442.5A6,6,0,1,1,364.5,442.5A6,6,0,1,1,376.5,442.5"></path><path id="kity_path_241" fill="none" stroke="gray" d="M366,442.5L375,442.5"></path></g><path id="node_outline27" fill="none" stroke="none" d="M195.5,431.5h164a5,5,0,0,1,5,5v12a5,5,0,0,1,-5,5h-164a5,5,0,0,1,-5,-5v-12a5,5,0,0,1,5,-5z" stroke-width="3"></path><g id="node_text27" fill="black"><text id="kity_text_237" text-rendering="inherit" font-size="12" dy=".8em" y="434.58000004291534" x="200.5">Développement sur mesure</text></g></g><g id="minder_node28"><g id="node_expander27" style="cursor: pointer;" display="none"><path id="kity_path_252" fill="white" stroke="gray" d="M162.5,442.5A6,6,0,1,1,150.5,442.5A6,6,0,1,1,162.5,442.5"></path><path id="kity_path_253" fill="none" stroke="gray"></path></g><path id="node_outline28" fill="none" stroke="none" d="M25.5,431.5h120a5,5,0,0,1,5,5v12a5,5,0,0,1,-5,5h-120a5,5,0,0,1,-5,-5v-12a5,5,0,0,1,5,-5z" stroke-width="3"></path><g id="node_text28" fill="black"><text id="kity_text_249" text-rendering="inherit" font-size="12" dy=".8em" y="434.58000004291534" x="30.5">TS + NextJS + Strapi</text></g></g><g id="minder_node29"><g id="node_expander28" style="cursor: pointer;" display="none"><path id="kity_path_260" fill="white" stroke="gray" d="M376.5,494.5A6,6,0,1,1,364.5,494.5A6,6,0,1,1,376.5,494.5"></path><path id="kity_path_261" fill="none" stroke="gray"></path></g><path id="node_outline29" fill="none" stroke="none" d="M324.5,483.5h35a5,5,0,0,1,5,5v12a5,5,0,0,1,-5,5h-35a5,5,0,0,1,-5,-5v-12a5,5,0,0,1,5,-5z" stroke-width="3"></path><g id="node_text29" fill="black"><text id="kity_text_257" text-rendering="inherit" font-size="12" dy=".8em" y="486.58000004291534" x="329.5">Blog</text></g></g><g id="minder_node30"><g id="node_expander29" style="cursor: pointer;" display="none"><path id="kity_path_268" fill="white" stroke="gray" d="M376.5,546.5A6,6,0,1,1,364.5,546.5A6,6,0,1,1,376.5,546.5"></path><path id="kity_path_269" fill="none" stroke="gray"></path></g><path id="node_outline30" fill="none" stroke="none" d="M184.5,535.5h175a5,5,0,0,1,5,5v12a5,5,0,0,1,-5,5h-175a5,5,0,0,1,-5,-5v-12a5,5,0,0,1,5,-5z" stroke-width="3"></path><g id="node_text30" fill="black"><text id="kity_text_265" text-rendering="inherit" font-size="12" dy=".8em" y="538.5800000429153" x="189.5">Contenu, Projets, programme</text></g></g><g id="minder_node31"><g id="node_expander30" style="cursor: pointer;"><path id="kity_path_276" fill="white" stroke="gray" d="M376.5,650.5A6,6,0,1,1,364.5,650.5A6,6,0,1,1,376.5,650.5"></path><path id="kity_path_277" fill="none" stroke="gray" d="M366,650.5L375,650.5"></path></g><path id="node_outline31" fill="none" stroke="none" d="M307.5,639.5h52a5,5,0,0,1,5,5v12a5,5,0,0,1,-5,5h-52a5,5,0,0,1,-5,-5v-12a5,5,0,0,1,5,-5z" stroke-width="3"></path><g id="node_text31" fill="black"><text id="kity_text_273" text-rendering="inherit" font-size="12" dy=".8em" y="642.5800000429153" x="312.5">Agenda</text></g></g><g id="minder_node32"><g id="node_expander31" style="cursor: pointer;" display="none"><path id="kity_path_284" fill="white" stroke="gray" d="M376.5,702.5A6,6,0,1,1,364.5,702.5A6,6,0,1,1,376.5,702.5"></path><path id="kity_path_285" fill="none" stroke="gray"></path></g><path id="node_outline32" fill="none" stroke="none" d="M305.5,691.5h54a5,5,0,0,1,5,5v12a5,5,0,0,1,-5,5h-54a5,5,0,0,1,-5,-5v-12a5,5,0,0,1,5,-5z" stroke-width="3"></path><g id="node_text32" fill="black"><text id="kity_text_281" text-rendering="inherit" font-size="12" dy=".8em" y="694.5800000429153" x="310.5">Contact</text></g></g><g id="minder_node33" opacity="1"><g id="node_expander32" style="cursor: pointer;" display="none"><path id="kity_path_292" fill="white" stroke="gray" d="M376.5,598.5A6,6,0,1,1,364.5,598.5A6,6,0,1,1,376.5,598.5"></path><path id="kity_path_293" fill="none" stroke="gray"></path></g><path id="node_outline33" fill="none" stroke="none" d="M237.5,587.5h122a5,5,0,0,1,5,5v12a5,5,0,0,1,-5,5h-122a5,5,0,0,1,-5,-5v-12a5,5,0,0,1,5,-5z" stroke-width="3"></path><g id="node_text33" fill="black"><text id="kity_text_289" text-rendering="inherit" font-size="12" dy=".8em" y="590.5800000429153" x="242.5">Dossiers décryptage</text></g></g><g id="kity_g_12" display="none"><path id="kity_path_13" fill="none" stroke="rgb(66, 112, 68)" d="M254.5,587.5h105a5,5,0,0,1,5,5v12a5,5,0,0,1,-5,5h-105a5,5,0,0,1,-5,-5v-12a5,5,0,0,1,5,-5z" stroke-width="5"></path></g><g id="minder_node34"><g id="node_expander33" style="cursor: pointer;" display="none"><path id="kity_path_300" fill="white" stroke="gray" d="M274.5,650.5A6,6,0,1,1,262.5,650.5A6,6,0,1,1,274.5,650.5"></path><path id="kity_path_301" fill="none" stroke="gray"></path></g><path id="node_outline34" fill="none" stroke="none" d="M118.5,639.5h139a5,5,0,0,1,5,5v12a5,5,0,0,1,-5,5h-139a5,5,0,0,1,-5,-5v-12a5,5,0,0,1,5,-5z" stroke-width="3"></path><g id="node_text34" fill="black"><text id="kity_text_297" text-rendering="inherit" font-size="12" dy=".8em" y="642.5800000429153" x="123.5">Alimenté par Mobilizon</text></g></g></g></g></svg>